<?xml version="1.0" encoding="utf-8"?>
<!-- Generator: Adobe Illustrator 26.5.0, SVG Export Plug-In . SVG Version: 6.00 Build 0)  -->
<svg version="1.1" id="Layer_1" xmlns="http://www.w3.org/2000/svg" xmlns:xlink="http://www.w3.org/1999/xlink" x="0px" y="0px"
	 viewBox="0 0 81.9 96" style="enable-background:new 0 0 81.9 96;" xml:space="preserve">
<style type="text/css">
	.st0{fill:#FFFFFF;}
	.st1{fill:#FC1A1A;}
</style>
<path class="st0" d="M72.9,71.2c-2-3-2.5-6.6-2.5-10.3V49.2c-2.1,0.7-4.4,1.2-6.8,1.2c-11.5,0-20.8-9.3-20.8-20.8
	c0-5,1.8-9.6,4.7-13.2c-0.1,0-0.1,0-0.2,0V12c0-2.5-1-4.8-2.7-6.5c-1.7-1.7-4.1-2.7-6.5-2.7c-2.5,0-4.8,1-6.5,2.7
	c-1.7,1.7-2.7,4.1-2.7,6.5v4.2C15.9,18.8,5.6,30.1,5.6,43.4v17.5c0,3.7-0.5,7.2-2.5,10.3l-1.3,2c-2,3.1,0.2,7.2,3.8,7.2h18.6
	c0,3.7,1.5,7.2,4.1,9.8c2.6,2.6,6.1,4.1,9.8,4.1c3.7,0,7.2-1.5,9.8-4.1c2.6-2.6,4.1-6.1,4.1-9.8h18.6c3.6,0,5.8-4.1,3.8-7.2
	L72.9,71.2z"/>
<circle class="st1" cx="64" cy="29.4" r="16.3"/>
</svg>
