<?xml version="1.0" encoding="UTF-8"?><svg id="b" xmlns="http://www.w3.org/2000/svg" viewBox="0 0 48 62"><defs><style>.d{fill:#edf4fa;}.e{fill:#ffda4d;}.f{fill:#ec4e20;}.g{fill:#ffab02;}.h{fill:#ffc400;}.i{fill:#ff9102;}.j{fill:#ff7802;}.k{fill:#c1cfe8;}.l{fill:#8394b2;}</style></defs><g id="c"><g><g><path class="d" d="M33,8v24.8c-2.6-1.7-5.7-2.8-9-2.8s-6.4,1-9,2.8V8h18Z"/><path class="f" d="M46,8v28.9c0,.7-.3,1.3-.8,1.7l-6,2.3c-1.1-3.4-3.3-6.2-6.2-8.2V8h13Z"/><path class="f" d="M15,8v24.8c-2.9,2-5.1,4.8-6.2,8.2l-6-2.3c-.5-.4-.8-1-.8-1.7V8H15Z"/><path class="g" d="M39.2,40.9c.5,1.6,.8,3.3,.8,5.1,0,8.8-7.2,16-16,16s-16-7.2-16-16,.3-3.5,.8-5.1c1.1-3.4,3.3-6.2,6.2-8.2,2.6-1.7,5.7-2.8,9-2.8s6.4,1,9,2.8c2.9,2,5.1,4.8,6.2,8.2Zm-3.2,5.1c0-6.6-5.4-12-12-12s-12,5.4-12,12,5.4,12,12,12,12-5.4,12-12Z"/><path class="e" d="M24,34c6.6,0,12,5.4,12,12s-5.4,12-12,12-12-5.4-12-12,5.4-12,12-12Z"/><polygon class="k" points="48 0 48 8 46 8 33 8 15 8 2 8 0 8 0 0 48 0"/></g><g><g><path class="l" d="M0,0V8H48V4H8c-1.1,0-2-.9-2-2V0H0Z"/><path class="i" d="M24,32c-7.7,0-14,6.3-14,14s6.3,14,14,14,14-6.3,14-14-6.3-14-14-14Zm0,26c-6.6,0-12-5.4-12-12s5.4-12,12-12,12,5.4,12,12-5.4,12-12,12Z"/><g><path class="k" d="M28,13h5v-5H15v24.8c2.6-1.7,5.7-2.8,9-2.8v-13c0-2.2,1.8-4,4-4Z"/><rect class="f" x="33" y="8" width="13" height="5"/><path class="f" d="M2,8v28.9c0,.7,.3,1.3,.8,1.7l6,2.3c1.1-3.4,3.3-6.2,6.2-8.2V8H2Z"/></g></g><path class="h" d="M16,42c0-2.3,.7-4.4,1.8-6.2-3.5,2.1-5.8,5.9-5.8,10.2,0,6.6,5.4,12,12,12s8.1-2.3,10.2-5.8c-1.8,1.1-3.9,1.8-6.2,1.8-6.6,0-12-5.4-12-12Z"/><polygon class="j" points="20 41 23 39 26 39 26 53 23 53 23 43 20 43 20 41"/></g></g></g></svg>