<?xml version="1.0" encoding="utf-8"?>
<!-- Generator: Adobe Illustrator 26.5.0, SVG Export Plug-In . SVG Version: 6.00 Build 0)  -->
<svg version="1.1" id="Layer_1" xmlns="http://www.w3.org/2000/svg" xmlns:xlink="http://www.w3.org/1999/xlink" x="0px" y="0px"
	 viewBox="0 0 76 96" style="enable-background:new 0 0 76 96;" xml:space="preserve">
<style type="text/css">
	.st0{display:none;fill:#2110FF;}
	.st1{fill:#FFFFFF;}
	.st2{display:none;fill:#10996B;}
	.st3{display:none;fill:#FC1A1A;}
</style>
<rect x="-49.4" y="-48.8" class="st0" width="163.2" height="202.1"/>
<path class="st1" d="M74.2,73.2l-1.3-2c-2-3-2.5-6.6-2.5-10.3V43.4C70.3,30.1,60.1,19,47.3,16.3V12c0-2.5-1-4.8-2.7-6.5
	c-1.7-1.7-4.1-2.7-6.5-2.7c-2.5,0-4.8,1-6.5,2.7c-1.7,1.7-2.7,4.1-2.7,6.5v4.2C15.9,18.8,5.6,30.1,5.6,43.4v17.5
	c0,3.7-0.5,7.2-2.5,10.3l-1.3,2c-2,3.1,0.2,7.2,3.8,7.2h18.6c0,3.7,1.5,7.2,4.1,9.8c2.6,2.6,6.1,4.1,9.8,4.1c3.7,0,7.2-1.5,9.8-4.1
	c2.6-2.6,4.1-6.1,4.1-9.8h18.6C74.1,80.4,76.2,76.3,74.2,73.2z"/>
<circle class="st2" cx="63.6" cy="29.5" r="20.8"/>
<circle class="st3" cx="64" cy="29.4" r="16.3"/>
</svg>
